<svg role="img" viewBox="0 0 24 24" xmlns="http://www.w3.org/2000/svg" fill="white">
    <title>Xbox</title>
    <path d="M11.238 22.109C5.462 22.11 0 16.65 0 11.043c0-4.084 1.838-7.747 4.707-10.222.148-.127.31-.035.385.127l2.844 6.702c.036.082.02.18-.046.248-1.554 1.614-2.529 3.82-2.529 6.255 0 2.378.932 4.538 2.428 6.134.072.078.093.19.053.284l-2.73 7.026c-.053.131-.225.21-.384.112a14.28 14.28 0 0 1-3.5-3.6zM11.957.043c1.944 0 3.805.474 5.485 1.328.148.075.143.239.022.336L11.957 6.44 6.45 1.707c-.122-.097-.127-.261.022-.336C8.152.517 10.013.043 11.957.043zm1.18 11.13c0-2.435-.975-4.641-2.529-6.255-.065-.068-.081-.166-.046-.248L13.407.948c.075-.162.237-.254.385-.127 2.87 2.475 4.707 6.138 4.707 10.222 0 5.607-5.462 11.066-11.238 11.066a14.281 14.281 0 0 1-3.5-3.6c-.159-.115.012-.224.113-.343a14.24 14.24 0 0 0 2.427-6.135 1.945 1.945 0 0 0-.053-.284l-2.73-7.026c-.04-.094.02-.206.053-.284L10.608 11.043c.04.1.045.2.045.3z"/>
</svg>
